<?xml version="1.0" encoding="UTF-8"?> <svg xmlns="http://www.w3.org/2000/svg" width="1177" height="874" viewBox="0 0 1177 874" fill="none"> <g clip-path="url(#clip0_203_500)"> <path d="M1083.97 212.452C950.424 26.6217 668.322 -48.7591 390.883 32.4278C244.21 75.3488 102.79 161.348 32.7055 327.869C-92.5779 625.544 170.47 720.614 342.475 750.914C425.648 765.565 503.982 790.176 575.564 823.684C704.348 883.969 932.303 937.387 1104.2 686.275C1228.79 504.269 1172.92 336.233 1083.97 212.452Z" fill="#F2F2F2"></path> <path d="M309.733 249.218C309.359 246.264 308.604 243.372 307.485 240.613C307.343 240.091 307.093 239.605 306.752 239.185C306.411 238.765 305.987 238.421 305.505 238.174C304.862 238.007 304.187 238 303.54 238.152L293.453 239.696C292.609 239.734 291.801 240.048 291.152 240.59C289.838 241.972 291.132 244.197 291.091 246.103C291.046 248.246 289.142 249.986 287.076 250.562C284.968 250.988 282.794 250.961 280.697 250.483L266.592 248.291C270.746 246.965 274.443 244.497 277.262 241.17C279.118 238.971 280.106 234.866 277.423 233.825C276.626 233.606 275.795 233.539 274.973 233.628C268.583 233.678 263.554 228.342 257.571 226.095C253.742 224.749 249.586 224.649 245.697 225.809C241.807 226.968 238.384 229.328 235.917 232.55L243.431 232.912C244.138 232.873 244.839 233.06 245.432 233.446C247.079 234.799 245.032 237.398 245.264 239.516C245.565 242.269 249.22 242.857 251.975 243.135C254.73 243.413 258.225 245.652 256.899 248.083C243.053 252.852 228.962 238.76 214.42 240.494C210.74 240.933 207.264 242.379 203.671 243.288C181.72 248.842 159.027 234.024 136.603 237.162C131.618 238.012 126.719 239.304 121.963 241.024C118.911 242.026 115.728 243.109 113.51 245.433C111.293 247.757 110.449 251.731 112.549 254.161C106.759 254.638 100.93 254.084 95.3336 252.525C96.8471 253.366 98.1061 254.599 98.9786 256.095C99.8511 257.59 100.305 259.293 100.292 261.025C91.2516 262.499 82.4503 265.183 74.125 269.004C75.6788 271.587 77.4937 274.005 79.541 276.218L68.0957 283.571C71.9625 284.546 73.9617 289.818 71.713 293.111C75.7224 291.328 78.2073 286.714 82.4947 285.778C85.3035 285.165 88.1615 286.314 90.8261 287.394C93.4907 288.473 96.4194 289.52 99.1778 288.71C101.936 287.899 103.971 284.323 102.218 282.044C114.008 278.604 126.193 276.7 138.471 276.38C139.418 276.261 140.379 276.443 141.216 276.901C142.815 278.01 142.394 280.405 142.308 282.348C142.222 284.291 143.736 286.845 145.473 285.97C143.43 287.741 145.177 291.077 147.137 292.941C149.098 294.804 151.461 297.375 150.26 299.799C149.947 300.431 149.416 300.937 149.114 301.576C148.225 303.46 149.637 305.656 151.303 306.908C152.969 308.159 155.01 309.033 156.168 310.766C157.325 312.499 156.799 315.532 154.73 315.773L148.847 308.305C146.838 310.389 145.46 313 144.874 315.835C151.112 320.934 152.05 331.313 146.828 337.448C144.159 340.584 140.364 342.489 137.052 344.934C133.739 347.38 130.674 350.862 130.683 354.979C130.697 362.092 130.116 368.701 132.781 375.295C137.697 387.456 143.371 399.295 149.772 410.743C151.453 413.749 153.625 417.044 157.03 417.562C152.727 407.085 148.853 396.446 145.409 385.644C147.652 385.653 150.245 385.831 151.56 387.649C152.649 389.154 152.415 391.2 152.753 393.026C153.183 394.796 153.901 396.483 154.878 398.021L175.427 434.626C177.131 437.66 179.085 440.917 182.34 442.146C184.422 442.932 186.83 442.784 188.746 443.915C190.248 444.802 191.259 446.375 192.79 447.211C197.119 449.572 203.139 445.043 207.184 447.863C208.341 448.669 209.077 449.95 210.143 450.873C213.879 454.108 220.008 451.944 224.321 454.357C227.101 455.913 228.542 459.024 230.024 461.843C233.738 468.905 239.748 475.824 247.707 476.386C250.207 476.563 252.761 476.089 255.205 476.645C257.649 477.201 260.055 479.334 259.662 481.81C258.99 486.054 261.087 490.701 260.523 494.961C259.498 502.72 248.491 506.13 247.546 513.9C247.339 515.601 247.663 517.357 247.258 519.022C246.761 521.063 245.229 522.724 244.684 524.753C243.652 528.597 246.406 532.423 249.432 535.009C252.457 537.596 256.066 539.826 257.72 543.446C259.469 547.273 258.61 551.735 259.179 555.903C260.42 565.003 268.28 571.75 276.37 576.1C278.834 577.425 281.48 578.708 283.076 581.007C285.158 584.008 284.95 587.964 285.646 591.55C287.348 600.332 294.741 607.567 294.951 616.51C295.1 622.866 291.567 628.632 289.456 634.63C287.477 640.376 286.761 646.481 287.357 652.529C287.952 658.577 289.845 664.425 292.907 669.675C294.486 672.341 296.374 674.855 297.491 677.745C299.484 682.903 298.837 688.765 300.675 693.98C303.105 700.875 309.781 706.57 309.142 713.852C312.173 720.146 318.865 723.239 325.595 725.112L337.657 728.469C339.966 729.112 342.38 729.76 344.731 729.295C347.083 728.829 349.327 726.876 349.267 724.48C343.352 723.146 337.247 721.728 332.371 718.123C327.496 714.519 324.156 708.101 326.006 702.326C326.863 699.649 328.688 696.557 326.953 694.344C325.96 693.078 324.143 692.747 323.023 691.591C321.275 689.788 321.876 686.76 323.132 684.586C324.389 682.412 326.205 680.47 326.711 678.011C326.967 676.635 326.796 675.214 326.222 673.938C325.647 672.662 324.696 671.593 323.496 670.873C325.732 670.028 327.766 668.723 329.466 667.042C331.036 665.249 331.761 662.485 330.526 660.447C334.193 660.912 338.523 661.14 340.931 658.334C342.853 656.094 342.721 652.745 341.962 649.892C341.202 647.039 339.918 644.268 339.878 641.317C348.338 641.718 356.817 641.43 365.231 640.457C364.014 636.359 361.249 632.897 357.523 630.803C361.333 630.159 364.805 625.597 366.009 621.924C367.213 618.252 366.906 614.251 366.162 610.459C365.876 609.483 365.837 608.451 366.048 607.455C366.477 606.088 367.82 605.253 369.063 604.54L387.977 593.677C389.106 593.111 390.129 592.356 391.002 591.444C392.984 589.116 392.69 585.602 391.675 582.719C390.661 579.835 389.035 577.123 388.644 574.092C387.475 565.024 397.182 558.518 400.458 549.982C401.743 546.633 402.005 542.992 402.254 539.412C402.521 535.568 402.541 531.103 399.59 528.625C396.76 526.251 392.339 526.781 389.378 524.572C386.664 522.546 385.727 518.613 382.762 516.978C380.069 515.492 376.692 516.437 373.697 515.738C368.423 514.508 365.105 508.43 359.719 507.867C356.68 507.55 353.241 509.035 350.75 507.266C348.556 505.706 348.468 502.572 348.05 499.912C347.318 495.779 345.337 491.969 342.373 488.996C339.41 486.023 335.606 484.029 331.475 483.284C328.342 482.782 324.932 482.972 322.266 481.251C319.567 479.507 318.33 476.243 316.21 473.828C312.793 469.937 307.411 468.554 302.37 467.369L281.864 462.549C278.224 461.693 273.532 461.239 271.579 464.428C271.001 465.642 270.591 466.929 270.362 468.254C269.63 470.651 268.157 472.755 266.155 474.262C264.152 475.769 261.724 476.603 259.218 476.643C257.499 473.711 254.715 471.557 251.446 470.629C249.367 470.05 247.141 469.985 245.158 469.133C244.078 468.606 243.117 467.864 242.334 466.952C241.55 466.041 240.961 464.979 240.603 463.832C240.244 462.685 240.123 461.477 240.247 460.282C240.372 459.086 240.738 457.929 241.326 456.88C242.508 454.775 242.964 452.34 242.625 449.95C242.285 447.56 241.168 445.348 239.447 443.655C235.96 440.524 230.915 439.768 226.239 440.081C225.015 437.409 227.062 434.394 229.269 432.452C231.476 430.511 234.155 428.601 234.635 425.702C235.391 421.14 229.571 417.676 225.152 419.036C220.733 420.396 217.912 424.688 216.048 428.919C214.978 431.347 214.069 433.903 212.381 435.95C210.694 437.997 207.977 439.463 205.406 438.806C201.768 437.876 200.362 433.553 199.557 429.884C198.476 424.963 197.39 419.973 197.616 414.939C197.842 409.905 199.539 404.736 203.251 401.328C209.3 395.775 218.579 396.32 226.743 397.205C224.814 395.032 225.291 391.37 227.354 389.325C228.444 388.357 229.753 387.67 231.168 387.322C232.583 386.974 234.061 386.977 235.475 387.33C237.935 387.842 240.151 389.167 241.766 391.091C244.086 393.92 244.746 397.738 246.499 400.949C248.253 404.159 252.195 406.897 255.422 405.175C258.21 403.687 258.652 399.822 257.959 396.74C257.265 393.657 255.791 390.66 256.043 387.51C256.522 381.501 262.752 377.883 268.249 375.408C273.746 372.933 280.041 369.605 280.912 363.639C280.942 362.471 281.162 361.316 281.564 360.219C282.174 359.25 283.021 358.453 284.026 357.904C300.07 347.302 316.38 336.569 334.718 330.776C335.672 330.474 335.784 330.809 336.756 330.573C338.117 329.787 337.215 327.611 335.911 326.735C334.606 325.858 332.862 325.186 332.531 323.65C332.288 322.52 332.953 321.411 333.126 320.269C333.551 317.462 330.193 314.87 327.585 315.993C326.112 314.042 329.027 311.775 331.384 311.126C338.461 309.179 345.725 307.992 353.054 307.586C353.9 307.452 354.766 307.599 355.52 308.006C356.751 308.858 356.594 310.814 355.721 312.031C354.849 313.248 353.492 314.012 352.405 315.042C351.217 316.199 350.37 317.66 349.956 319.266C349.542 320.871 349.577 322.56 350.057 324.147C353.883 326.093 358.042 328.097 362.28 327.411C366.517 326.725 370.278 321.964 368.286 318.162C366.432 314.621 360.86 313.822 359.902 309.941C358.78 305.397 365.212 301.356 363.763 296.906C363.129 294.957 361.186 293.809 359.695 292.402C357.935 290.676 356.737 288.459 356.26 286.04C355.783 283.622 356.048 281.115 357.021 278.85C354.593 279.278 352.098 279.116 349.745 278.38C347.392 277.644 345.25 276.354 343.498 274.619C340.264 271.355 337.683 266.205 333.09 266.351C328.876 266.485 325.245 271.403 321.304 269.902C320.334 269.533 319.312 268.782 318.373 269.222C318.065 269.422 317.806 269.689 317.617 270.004C317.428 270.318 317.312 270.672 317.279 271.037C316.278 275.826 318.001 281.281 315.391 285.419C312.551 289.922 305.982 290.546 302.539 294.606C300.67 296.81 299.946 299.78 298.228 302.104C296.511 304.428 292.864 305.905 290.803 303.88C291.816 301.797 292.093 299.432 291.588 297.172C291.083 294.911 289.826 292.889 288.022 291.435C286.108 290.186 284.045 289.183 281.881 288.448C279.463 287.425 277.163 286.142 275.021 284.624C273.947 283.977 273.075 283.044 272.502 281.929C272.048 280.534 272.109 279.022 272.674 277.668C273.72 274.671 275.564 272.016 278.008 269.99C280.451 267.965 283.402 266.645 286.541 266.174C289.286 265.801 292.481 265.932 294.297 263.841C295.258 262.734 295.763 261.061 297.158 260.612C298.05 260.432 298.977 260.546 299.799 260.937L310.044 264.543C311.187 265.059 312.446 265.267 313.694 265.147C314.313 265.063 314.878 264.749 315.275 264.267C315.671 263.784 315.871 263.17 315.834 262.546C315.506 260.845 312.888 260.028 313.127 258.312C313.26 257.756 313.559 257.254 313.984 256.871C317.681 252.935 322.203 249.866 327.226 247.883C332.248 245.9 337.647 245.051 343.035 245.399C344.329 247.522 342.283 250.037 340.582 251.85C338.88 253.663 337.513 256.903 339.57 258.298C340.414 258.729 341.352 258.94 342.298 258.913C344.821 259.254 347.272 259.998 349.559 261.115C353.1 262.656 356.572 264.342 359.976 266.172C359.676 263.928 359.389 261.563 360.239 259.464C361.09 257.365 363.508 255.719 365.62 256.536C367.656 257.324 368.7 260.019 370.869 260.266C373.761 260.596 374.903 256.322 373.694 253.673C372.486 251.024 370.094 248.806 369.894 245.901C369.759 243.942 370.505 241.512 368.94 240.325C368.383 239.969 367.751 239.747 367.093 239.677L328.009 232.485C325.688 232.058 322.335 232.386 322.232 234.743C322.175 236.059 323.35 237.361 322.83 238.571C322.274 239.862 320.448 239.744 319.119 240.201C317.056 240.91 316.02 243.36 316.219 245.532C316.581 247.69 317.417 249.742 318.667 251.539C316.124 250.476 312.275 250.281 309.733 249.218Z" fill="#FDC100"></path> <path d="M278.547 216.04C276.083 215.225 273.427 215.187 270.94 215.931C268.453 216.676 266.255 218.168 264.645 220.204C264.001 221.051 263.461 222.219 264 223.137C264.772 224.452 266.74 223.933 268.191 223.462C270.324 222.7 272.645 222.645 274.812 223.304C276.174 223.772 277.393 224.599 278.762 225.049C279.428 225.327 280.157 225.419 280.872 225.315C281.586 225.211 282.259 224.914 282.817 224.456C283.757 223.498 283.816 222.009 283.817 220.668C283.882 220.219 283.846 219.761 283.712 219.328C283.578 218.895 283.348 218.497 283.041 218.163C282.493 217.846 281.878 217.664 281.245 217.632C279.829 217.37 278.549 216.622 277.626 215.517" fill="#FDC100"></path> <path d="M292.639 212.116C292.087 212.086 291.537 212.198 291.042 212.442C290.546 212.686 290.122 213.054 289.809 213.509C289.497 213.965 289.306 214.493 289.257 215.043C289.208 215.593 289.301 216.147 289.527 216.65C291.221 217.112 292.99 217.228 294.73 216.99C295.598 216.855 296.406 216.467 297.053 215.873C297.7 215.28 298.157 214.508 298.367 213.655C296.319 214.028 294.205 213.625 292.439 212.523" fill="#FDC100"></path> <path d="M339.922 205.563C335.312 206.543 330.833 208.064 326.58 210.095C328.585 210.866 330.29 212.26 331.442 214.073C332.595 215.886 333.135 218.021 332.983 220.164C332.803 220.986 332.823 221.84 333.043 222.653C333.533 223.841 334.953 224.287 336.202 224.592C338.444 225.274 340.786 225.573 343.129 225.476C344.3 225.414 345.438 225.062 346.439 224.45C347.44 223.838 348.273 222.987 348.862 221.972C349.202 221.009 349.6 220.068 350.055 219.153C353.047 214.596 361.936 220.106 365.148 215.702C366.28 214.15 366.177 211.815 367.652 210.586C368.415 210.05 369.299 209.712 370.225 209.603C376.686 208.32 383.212 207.39 389.774 206.819C392.883 206.549 396.936 205.432 396.962 202.311C385.25 200.011 373.107 201.645 362.42 206.958C358.57 208.887 353.477 212.944 349.768 210.387C348.38 209.429 348.448 206.852 346.537 205.775C344.583 204.675 341.996 205.122 339.922 205.563Z" fill="#FDC100"></path> <path d="M378.223 212.725L383.72 213.782C382.708 213.737 381.698 213.908 380.758 214.285C379.818 214.661 378.968 215.234 378.267 215.964C377.565 216.695 377.027 217.567 376.689 218.521C376.351 219.476 376.221 220.492 376.307 221.502C381.455 223.221 387.068 221.548 392.491 221.776C397.913 222.005 404.223 225.879 403.297 231.227C403.017 232.844 402.083 234.46 402.569 236.028C402.91 237.127 403.879 237.906 404.426 238.918C405.565 241.027 404.654 243.694 403.215 245.611C401.776 247.528 399.842 249.057 398.578 251.094C395.436 256.161 397.222 262.711 399.093 268.371C399.634 270.51 400.634 272.506 402.022 274.22C404.795 277.168 409.313 277.425 413.36 277.484C416.306 277.527 419.68 277.381 421.543 275.099C423.974 272.12 422.274 267.471 423.875 263.974C425.329 260.799 429.034 259.436 432.39 258.47C438.539 256.7 444.806 255.195 450.619 252.521C457.838 249.201 464.584 244.026 472.519 243.599C474.744 243.479 477.026 243.742 479.17 243.132C481.314 242.522 483.351 240.668 483.188 238.445C483.049 236.545 481.442 235.15 480.187 233.718C478.931 232.286 477.945 230.084 479.099 228.569L499.895 224.685C498.421 220.667 497.273 215.376 500.66 212.761C501.882 211.818 503.519 211.441 504.559 210.3C506.333 208.356 505.441 205.007 503.394 203.354C501.346 201.7 498.578 201.317 495.956 201.099C486.837 200.341 477.666 200.842 468.529 201.343C450.669 202.322 432.809 203.301 414.949 204.28C411.354 204.477 407.203 204.176 403.906 205.402C401.114 206.441 399.129 208.347 395.936 209.016C390.042 210.253 383.556 209.416 378.223 212.725Z" fill="#FDC100"></path> <path d="M476.706 256.178C476.146 256.09 475.573 256.22 475.106 256.541C474.797 256.881 474.614 257.317 474.585 257.775C474.23 259.799 474.653 261.882 475.769 263.607C476.337 264.454 477.122 265.133 478.041 265.573C478.961 266.014 479.981 266.201 480.997 266.114C483.472 265.798 485.297 263.687 487.572 262.656C491.08 261.069 505.975 258.596 495.671 253.029C492.12 251.11 489.826 252.804 487.027 254.067C483.843 255.696 480.275 256.426 476.706 256.178Z" fill="#FDC100"></path> <path d="M566.957 209.583C565.754 210.074 564.747 210.95 564.095 212.074C563.794 212.645 563.724 213.309 563.9 213.93C564.075 214.551 564.482 215.08 565.037 215.409C565.487 215.572 565.963 215.648 566.441 215.632L571.333 215.778C573.411 215.84 576.007 216.283 576.566 218.286C576.981 219.773 576.052 221.684 577.172 222.746C577.653 223.119 578.231 223.344 578.837 223.395C580.448 223.809 582.131 223.864 583.766 223.555C587.325 222.6 585.455 220.427 586.576 218.493C588.291 215.533 587.994 217.325 591.017 215.628C593.249 214.376 596.133 212.103 594.27 208.91C591.031 203.358 571.738 207.197 566.957 209.583Z" fill="#FDC100"></path> <path d="M663.515 206.791L660.674 207.17C654.268 208.025 647.826 208.888 641.656 210.812C644.327 211.868 647.129 212.555 649.985 212.855C651.557 212.932 653.119 213.154 654.651 213.519C657.376 214.33 660.122 216.425 662.754 215.352C664.387 214.686 664.919 212.986 666.272 212.086C667.205 211.464 670.747 210.457 671.143 209.829C674.343 204.754 665.975 206.463 663.515 206.791Z" fill="#FDC100"></path> <path d="M675.99 219.702C672.195 221.824 668.674 224.402 665.506 227.379C664.172 228.634 662.808 230.194 662.929 232.022C663.09 234.452 665.678 235.861 667.92 236.81L677.001 240.655C678.103 239.102 677.095 236.959 675.956 235.433C674.818 233.907 673.465 232.141 673.968 230.305C674.542 228.21 677.097 227.496 679.239 227.135C682.73 226.547 692.146 226.594 691.015 220.968C689.682 214.339 679.494 217.743 675.99 219.702Z" fill="#FDC100"></path> <path d="M674.162 594.829C673.298 597.332 673.216 600.28 674.711 602.466C676.389 604.918 679.748 605.832 682.653 605.21C685.546 604.44 688.125 602.782 690.027 600.469C691.765 598.531 693.196 596.338 694.268 593.965C695.764 590.268 696.819 586.407 697.411 582.463L700.231 567.659C700.861 564.35 700.837 554.207 694.756 557.512C693.094 558.414 689.248 565.543 687.507 567.564C684.369 571.208 683.954 574.743 682.302 579.156C680.233 584.685 676.075 589.292 674.162 594.829Z" fill="#FDC100"></path> <path d="M995.344 670.586C993.355 669.81 991.423 668.891 989.566 667.836C987.704 672.956 986.713 678.353 986.637 683.801L1000.25 676.096C1002.3 674.937 1004.62 673.326 1004.58 670.973C1004.6 670.683 1004.54 670.392 1004.4 670.133C1004.27 669.874 1004.07 669.655 1003.83 669.5C1003.52 669.378 1003.19 669.34 1002.87 669.388C1000.85 669.556 999.011 670.549 997.107 671.24C995.202 671.931 992.975 672.296 991.227 671.271" fill="#FDC100"></path> <path d="M1067.17 675.161C1065.68 675.568 1064.22 676.091 1062.8 676.728C1059.68 678.318 1057.55 681.337 1054.74 683.431C1052.05 685.435 1048.81 686.535 1045.63 687.605C1044.7 688.432 1045.13 690.097 1046.14 690.823C1047.23 691.444 1048.49 691.726 1049.74 691.631C1053.04 691.704 1056.52 691.736 1059.42 690.141C1061.05 689.083 1062.57 687.872 1063.97 686.524C1067.36 683.702 1071.42 681.839 1075.44 680.04C1076.9 679.487 1078.26 678.678 1079.44 677.65C1081.96 675.16 1082.14 671.319 1078.5 670.472C1075.55 669.787 1069.97 674.254 1067.17 675.161Z" fill="#FDC100"></path> <path d="M1098.91 654.43C1099.07 652.717 1098.84 650.989 1098.24 649.377C1097.64 647.765 1096.68 646.31 1095.43 645.124C1095.4 648.551 1095.29 652.203 1093.36 655.037C1091.99 657.057 1089.84 658.421 1088.33 660.345C1086.83 662.269 1086.16 665.318 1087.92 667.006C1089.05 667.864 1090.43 668.338 1091.84 668.356C1095.36 668.77 1099.43 669 1101.89 666.462C1103.23 665.076 1103.89 663.024 1105.53 662.005C1106.14 661.749 1106.69 661.358 1107.13 660.862C1107.8 659.786 1106.73 658.366 1105.52 657.978C1104.3 657.59 1102.97 657.773 1101.75 657.404C1100.53 657.036 1099.42 655.667 1100.04 654.558" fill="#FDC100"></path> <path d="M1042.5 528.759C1040.66 529.208 1038.75 529.32 1036.87 529.092C1033.74 528.517 1031.3 526.159 1028.78 524.226C1022.78 519.655 1015.48 517.105 1007.93 516.942C1001.07 516.813 994.144 518.672 987.404 517.375C987.845 519.824 989.941 521.661 992.177 522.753C994.413 523.845 996.881 524.394 999.128 525.464C1002.73 527.194 1005.58 530.163 1007.17 533.828C1007.89 535.517 1008.35 537.355 1009.44 538.83C1011.68 541.845 1015.93 542.507 1019.68 542.26C1024.56 541.939 1029.67 540.533 1034.21 542.354C1037.69 543.747 1040.18 546.791 1043.09 549.158C1045.99 551.525 1050.08 553.281 1053.41 551.574C1049.95 550.452 1046.94 548.253 1044.81 545.297C1042.69 542.342 1041.56 538.784 1041.6 535.144C1044.87 535.444 1054.29 535.328 1053.78 529.771C1053.35 525.062 1045.31 528.251 1042.5 528.759Z" fill="#FDC100"></path> <path d="M999.719 567.076C1000.3 563.892 1003.48 561.079 1002.49 557.997C1001.8 555.865 999.331 554.812 997.093 554.76C994.854 554.707 992.656 555.374 990.418 555.437C988.961 555.359 987.501 555.38 986.047 555.499C981.605 556.229 978.866 560.885 974.68 562.541C972.134 563.548 969.274 563.355 966.627 564.051C960.617 565.631 956.814 571.31 952.613 575.889C945.825 583.254 936.982 588.411 927.229 590.692C923.812 591.484 920.138 591.99 917.422 594.209C913.825 597.148 912.94 602.186 912.14 606.762C909.929 619.398 906.55 631.801 902.047 643.813L916.317 645.635C919.03 645.981 921.842 646.32 924.456 645.516C926.356 644.8 928.155 643.841 929.809 642.665C936.165 638.719 943.278 636.151 950.689 635.128C954.426 634.615 958.344 634.521 961.851 635.91C965.358 637.299 968.366 640.449 968.66 644.21C970.177 643.738 971.793 643.687 973.336 644.062C974.88 644.438 976.292 645.225 977.422 646.341C979.657 648.618 981.12 651.539 981.606 654.692C981.982 656.644 982.358 658.983 984.169 659.802C985.647 660.471 987.343 659.751 988.96 659.622C994.446 659.183 998.999 665.58 1004.39 664.478C1010.18 663.297 1011.59 654.635 1017.24 652.9C1020.48 651.904 1025.02 653.115 1026.57 650.101C1027.94 647.444 1025.21 644.378 1025.5 641.403C1025.84 637.74 1030.16 636.185 1033.49 634.622C1044.98 629.234 1050.43 613.777 1044.86 602.378C1041.57 595.624 1035.08 590.307 1033.88 582.887C1032.96 577.178 1035.21 570.521 1031.57 566.028C1029.72 563.742 1026.58 562.48 1025.48 559.752C1024.79 558.035 1025.07 556.087 1024.69 554.274C1024.32 552.46 1022.74 550.563 1020.95 551.033C1015.75 552.398 1014.09 568.458 1011.3 572.36C1007.07 578.292 998.387 574.384 999.719 567.076Z" fill="#FDC100"></path> <path d="M903.626 534.827C901.85 534.329 899.91 533.838 898.207 534.55C896.505 535.262 895.511 537.762 896.877 539.002C907.566 538.585 918.32 538.172 928.917 539.623C941.127 541.296 953.211 545.438 965.475 544.22C958.47 542.153 951.349 540.501 944.149 539.271L932.143 536.978C928.922 536.303 925.668 535.8 922.394 535.471C915.545 534.906 910.361 536.716 903.626 534.827Z" fill="#FDC100"></path> <path d="M914.325 497.601C913.438 497.527 912.339 497.463 911.88 498.226C911.441 498.955 911.943 499.918 911.707 500.736C911.385 501.852 909.923 502.138 908.771 501.986C907.618 501.834 906.372 501.47 905.351 502.025C904.834 502.379 904.445 502.891 904.242 503.484C904.04 504.078 904.036 504.721 904.231 505.317C904.648 506.5 905.323 507.577 906.207 508.467C907.717 510.37 909.437 512.095 911.335 513.611C915.008 516.322 919.985 517.629 922.299 521.565C922.625 522.328 923.127 523.004 923.763 523.536C924.874 524.24 926.323 523.705 927.518 523.158L931.71 521.243C932.466 520.971 933.14 520.512 933.67 519.91C934.628 518.61 934.04 516.763 933.236 515.363C932.432 513.963 931.403 512.514 931.575 510.909C931.883 508.047 935.562 506.953 937.075 504.504C938.6 502.036 937.608 498.856 937.783 495.96C937.989 492.574 940.117 488.168 936.693 485.638C933.783 483.487 931.002 485.474 928.913 487.849C924.507 492.855 922.424 498.278 914.325 497.601Z" fill="#FDC100"></path> <path d="M939.772 446.999C941.203 449.739 944.187 451.374 945.747 454.043C947.439 456.935 947.246 460.673 949.081 463.476C950.964 466.353 954.753 467.88 955.809 471.152C956.962 474.724 954.346 479.065 956.431 482.186C956.82 482.696 957.31 483.12 957.872 483.431C958.433 483.741 959.052 483.932 959.691 483.991C960.33 484.049 960.974 483.975 961.582 483.772C962.191 483.568 962.75 483.241 963.226 482.81C964.105 481.853 964.575 480.591 964.537 479.292C964.498 477.993 963.954 476.76 963.02 475.857C961.785 474.731 960.013 474.245 958.982 472.93C958.445 472.172 958.088 471.301 957.936 470.384C957.375 467.739 957.465 464.997 958.199 462.395C958.474 461.734 958.544 461.006 958.4 460.305C957.936 458.956 956.109 458.861 954.828 458.235C951.916 456.814 951.987 452.705 952.496 449.506C952.157 451.636 944.57 448.013 943.775 446.807C942.197 444.41 943.056 439.787 942.743 437.138C939.336 438.78 938.022 443.648 939.772 446.999Z" fill="#FDC100"></path> <path d="M863.335 489.16C861.935 487.593 859.825 485.953 857.948 486.898C856.515 487.619 856.121 489.601 856.683 491.103C857.367 492.563 858.42 493.818 859.738 494.745C863.65 497.972 867.863 500.885 871.277 504.636C877.385 511.348 880.621 520.406 887.264 526.59C888.599 528.024 890.367 528.98 892.298 529.314C894.233 529.494 896.407 528.255 896.629 526.324C896.813 524.734 895.704 523.31 894.62 522.131C892.039 519.325 889.214 516.741 886.778 513.808C885.653 512.681 884.946 511.205 884.774 509.622C884.761 508.042 886.201 506.39 887.731 506.781C885.871 506.305 884.49 503.205 881.759 502.622C879.477 502.135 878.925 503.548 876.208 502.383C871.028 500.161 866.963 493.222 863.335 489.16Z" fill="#FDC100"></path> <path d="M985.067 336.514C983.581 336.072 982.12 335.55 980.691 334.95C976.844 333.796 971.755 336.623 972.267 340.606C972.608 343.253 975.071 345.037 976.431 347.333C978.449 350.737 977.911 355.055 976.851 358.868C976.59 360.048 976.095 361.164 975.395 362.15C974.416 363.19 973.246 364.032 971.948 364.629C966.754 367.542 962.173 371.434 958.459 376.09C958.055 376.52 957.773 377.05 957.644 377.625C957.46 378.97 958.812 379.95 959.577 381.072C961.274 383.563 960.047 386.916 960.215 389.927C960.189 390.352 960.273 390.778 960.457 391.162C960.642 391.546 960.922 391.877 961.27 392.123C962.293 392.643 963.506 391.76 964.06 390.755C965.901 387.421 964.515 382.068 967.967 380.46C968.621 380.156 969.412 380.028 969.848 379.454C970.54 378.544 969.873 377.196 970.223 376.108C970.749 374.475 972.983 374.401 974.698 374.474C977.651 374.597 980.603 374.204 983.422 373.312C984.527 373.049 985.531 372.468 986.31 371.64C987.342 370.352 987.25 368.52 987.044 366.882C986.011 358.717 983.425 350.825 979.425 343.633C982.458 344.02 985.758 344.356 988.375 342.775C989.841 341.89 991.598 339.243 990.871 337.441C989.722 334.592 987.645 336.99 985.067 336.514Z" fill="#FDC100"></path> <path d="M596.217 381.42C596.58 383.367 596.937 385.417 596.299 387.292C595.661 389.167 593.654 390.733 591.759 390.159C590.288 389.713 589.439 388.234 588.394 387.106C582.586 380.836 569.482 384.466 565.894 376.709C564.43 373.543 565.425 369.75 564.426 366.408C563.796 364.476 562.542 362.809 560.861 361.667C559.181 360.525 557.169 359.974 555.141 360.1C553.291 360.367 551.491 360.905 549.797 361.695C538.453 366.238 526.544 369.217 514.396 370.549C512.088 370.69 509.804 371.106 507.594 371.787C502.606 373.595 499.198 378.22 496.773 382.938C494.348 387.657 492.557 392.765 489.305 396.958C485.888 401.363 481.099 404.449 476.632 407.786C474.912 408.895 473.479 410.397 472.452 412.168C471.483 414.156 471.538 416.468 471.613 418.678L472.526 445.522C472.643 448.975 472.791 452.551 474.336 455.641C476.266 459.499 480.078 462.026 482.723 465.435C485.421 468.938 486.827 473.265 486.702 477.685C486.646 479.462 486.469 481.564 487.853 482.68C488.695 483.226 489.681 483.51 490.684 483.494L526.995 486.466C533.383 486.989 540.462 487.849 544.632 492.715C546.6 495.012 548.181 498.315 551.196 498.561C552.489 498.667 553.747 498.136 555.041 498.034C558.304 497.775 561.17 500.252 562.979 502.98C565.717 507.137 566.96 512.103 566.504 517.06C566.207 520.172 565.242 523.197 565.034 526.316C564.243 538.184 574.303 548.495 574.498 560.387C574.613 567.383 571.292 573.919 568.055 580.121C573.28 588.037 569.001 598.577 571.082 607.832C573.055 616.611 580.376 623.484 582.2 632.296C583.035 636.33 583.083 641.295 586.64 643.372C588.201 644.133 589.932 644.48 591.665 644.379C602.121 644.502 612.458 642.149 621.83 637.511C626.229 635.328 630.787 632.07 631.556 627.22C632.175 623.309 630.192 618.934 632.21 615.527C634.589 611.512 640.684 611.83 644.184 608.743C649.863 603.735 645.435 594.183 647.735 586.97C649.804 580.486 656.923 577.041 660.452 571.221C661.84 568.718 662.837 566.017 663.407 563.212C665.023 556.508 666.03 549.672 666.413 542.786C666.507 538.602 666.816 534.427 667.337 530.275C671.142 506.637 694.511 490.809 702.098 468.101C702.822 465.932 703.162 463.043 701.233 461.816C700.089 461.27 698.792 461.135 697.559 461.432L680.82 463.542C678.741 463.804 676.537 464.049 674.628 463.186C672.719 462.322 671.35 459.907 672.363 458.072C675.206 452.922 669.358 446.415 666.76 441.137C659.763 426.927 651.43 413.414 641.875 400.781C641.263 400.131 640.88 399.299 640.784 398.412L645.535 398.57C643.931 392.816 641.285 386.519 635.694 384.414C632.544 383.228 629.055 383.638 625.694 383.821C616.067 384.347 605.746 382.894 596.217 381.42Z" fill="#FDC100"></path> <path d="M625.702 251.745C628.221 254.42 631.044 257.256 634.689 257.723C641.127 258.546 645.756 251.889 648.703 246.106C648.812 247.58 649.492 248.954 650.598 249.935C651.704 250.915 653.149 251.426 654.626 251.357C656.215 251.09 657.732 250.497 659.081 249.616C671.837 242.645 686.124 238.951 700.66 238.867C700.52 237.766 700.794 236.652 701.427 235.741C702.06 234.829 703.009 234.184 704.089 233.931C707.045 233.345 709.707 235.9 711.132 238.554C712.558 241.209 713.447 244.285 715.712 246.272C717.977 248.259 722.363 248.172 723.257 245.295C724.116 242.533 721.239 240.177 718.848 238.549C716.458 236.921 713.938 233.907 715.548 231.503C727.761 228.8 740.05 226.086 752.547 225.549C754.675 225.623 756.795 225.258 758.776 224.476C760.681 223.541 762.196 221.418 761.684 219.357C758.957 219.999 756.1 219.813 753.479 218.824C750.858 217.835 748.59 216.088 746.966 213.806C764.307 212.375 782.751 211.155 798.119 219.315C799.963 223.274 790.564 226.568 793.078 230.138C793.881 231.277 795.488 231.411 796.88 231.437C807.56 231.635 818.301 231.829 828.86 230.217C832.719 229.628 836.616 228.796 840.49 229.274C846.943 230.07 852.462 234.375 858.81 235.779C861.394 236.35 864.291 236.37 866.469 234.867C868.647 233.364 869.583 229.942 867.799 227.988C873.776 222.13 883.696 223.582 891.581 226.387C899.467 229.191 906.937 233.714 915.283 234.339C921.267 234.788 927.335 233.178 933.249 234.201C936.965 234.844 940.423 236.497 944.055 237.513C950.925 239.434 958.191 239.028 965.324 239.121C983.522 239.366 1001.52 242.943 1018.43 249.673C1020.63 250.39 1022.64 251.58 1024.33 253.161C1025.91 254.846 1026.71 257.464 1025.65 259.513L1008.18 256.96C1009.83 260.201 1014.08 260.753 1017.54 261.871C1021 262.989 1024.59 266.808 1022.51 269.79C1018.76 268.597 1015.37 272.344 1013.47 275.791C1011.58 279.239 1009.27 283.367 1005.35 283.577C1001.83 283.765 997.575 280.771 995.283 283.445C998.45 287.44 1001.16 291.775 1003.37 296.371C1005.63 301.089 1007.25 307.034 1004.19 311.279C1003.7 312.037 1002.97 312.604 1002.12 312.881C999.619 313.514 997.995 310.456 996.202 308.602C993.943 306.267 990.527 305.605 987.467 304.509C984.408 303.414 981.185 301.259 980.946 298.018C980.797 296.002 981.861 294.128 982.646 292.264C983.964 289.123 984.54 285.72 984.33 282.321C984.158 279.585 983.391 276.74 981.427 274.829C979.463 272.918 976.071 272.311 973.962 274.062C972.978 274.879 972.19 276.185 970.912 276.234C968.654 276.32 966.921 272.384 965.104 273.728C965.317 275.159 965.02 276.62 964.265 277.855C958.845 282.57 950.517 280.575 943.529 282.241C940.206 283.192 937.025 284.581 934.068 286.372C932.963 286.845 932.022 287.635 931.364 288.642C930.492 290.337 931.454 292.508 932.991 293.636C934.622 294.636 936.454 295.261 938.356 295.467C946.875 297.08 955.519 299.578 962.245 305.05C968.971 310.522 973.382 319.568 971.254 327.974L954.453 311.92C955.091 318.661 955.453 325.42 955.539 332.197C955.648 333.521 955.466 334.852 955.007 336.098C953.809 338.743 950.563 339.633 947.718 340.217C946.927 340.368 946.177 340.684 945.516 341.145C944.856 341.606 944.3 342.201 943.886 342.892C943.472 343.583 943.209 344.353 943.114 345.153C943.019 345.953 943.095 346.764 943.335 347.532C944.346 350.826 946.866 353.395 949.174 355.954C951.481 358.513 953.752 361.422 954.054 364.854C954.356 368.287 951.766 372.156 948.329 371.917C945.723 371.737 943.789 369.404 942.678 367.04C941.566 364.676 940.905 362.042 939.235 360.034C934.18 353.954 922.826 356.559 918.297 350.078C917.143 351.387 916.343 352.97 915.972 354.676C915.601 356.381 915.673 358.153 916.18 359.824C918.286 358.505 921.17 359.73 922.753 361.647C924.336 363.563 925.083 366.02 926.326 368.172C928.003 371.076 930.672 373.651 930.907 376.997C930.844 378.262 930.866 379.53 930.97 380.792C931.386 382.819 933.1 384.275 934.288 385.969C937.052 389.912 936.915 395.328 935.134 399.802C933.352 404.275 930.151 408.013 926.981 411.638C921.443 417.968 915.792 424.26 909.227 429.517C907.353 431.017 905.354 432.492 904.188 434.589C903.021 436.686 902.961 439.63 904.754 441.225C903.471 441.289 901.17 441.92 899.887 441.984C899.436 436.838 899.338 431.667 899.594 426.507C894.531 424.076 889.08 430.586 889.734 436.164C890.387 441.742 894.421 446.218 897.294 451.044C899.394 454.573 900.955 458.688 900.254 462.735C899.553 466.781 895.941 470.514 891.849 470.157C885.342 469.589 882.62 460.247 876.175 459.178C875.607 459.044 875.01 459.104 874.479 459.346C873.523 459.871 873.356 461.151 873.303 462.241C873.039 467.59 872.811 473.152 874.899 478.084C877.954 485.299 885.845 491.358 884.19 499.017C875.272 494.871 870.635 484.87 868.53 475.264C866.425 465.658 866.074 455.573 862.3 446.492C859.435 450.165 853.412 447.128 850.794 443.275C848.312 439.622 846.784 435.397 844.375 431.695C841.967 427.993 838.278 424.678 833.866 424.474C829.241 424.261 825.229 427.435 821.702 430.434C818.801 432.9 815.822 435.464 814.127 438.873C811.659 443.834 812.304 449.682 812.186 455.221C812.057 461.21 810.788 467.528 806.706 471.913C802.625 476.297 795.091 477.824 790.589 473.873C788.239 471.81 787.101 468.728 786.087 465.769C781.201 451.509 777.132 436.982 773.899 422.258C773.142 425.619 770.192 429.95 767.373 427.971C766.74 427.439 766.228 426.778 765.869 426.034C760.611 417.121 750.873 411.776 741.034 408.57C731.195 405.365 720.843 403.87 711.114 400.348C705.661 398.373 700.453 395.779 695.592 392.616C694.353 394.437 693.63 396.559 693.499 398.757C693.367 400.955 693.833 403.148 694.846 405.103C697.005 408.925 701.889 411.136 706.07 409.8C708.23 409.11 710.054 407.61 712.198 406.869C714.342 406.128 717.219 406.492 718.156 408.557C719.054 410.534 717.697 412.926 718.37 414.99C719.395 418.133 724.136 418.376 725.794 421.236C727.028 423.365 726.013 426.191 724.251 427.909C722.49 429.626 720.14 430.568 717.99 431.764C711.014 435.643 706.053 442.265 699.956 447.418C693.859 452.57 685.258 456.331 677.992 453.027C679.724 444.256 669.277 437.818 667.355 429.087C666.722 426.214 667.05 423.161 666.147 420.361C664.839 416.306 661.242 413.519 658.291 410.446C654.712 406.679 651.924 402.233 650.091 397.371C648.258 392.508 647.417 387.328 647.618 382.136C647.778 378.528 648.441 374.861 647.619 371.344C646.797 367.827 643.885 364.423 640.277 364.582C632.036 364.946 621.654 365.559 617.33 358.534C615.787 356.027 615.115 352.355 617.346 350.434C618.92 349.078 621.244 349.206 623.311 349.409L641.879 351.236C646.222 351.663 650.916 352.016 654.643 349.745C658.37 347.475 659.984 341.448 656.534 338.777C654.012 336.826 649.495 336.931 648.762 333.828C648.152 331.244 651.012 328.312 649.467 326.152C648.359 324.603 645.869 325.033 644.36 326.194C642.85 327.355 641.755 329.052 640.066 329.931C637.104 331.473 633.563 330.006 630.376 329.009C627.188 328.011 622.914 327.926 621.368 330.887C619.639 334.198 622.902 338.537 621.186 341.855C618.917 346.242 611.233 343.745 608.047 347.518C604.39 351.848 610.535 358.304 609.302 363.836C607.727 364.615 605.978 364.973 604.224 364.875C602.47 364.776 600.771 364.224 599.294 363.273C597.842 362.285 596.684 360.922 595.944 359.328C595.204 357.734 594.911 355.97 595.094 354.223C595.399 351.734 596.696 349.194 595.827 346.843C595.124 344.942 593.215 343.81 591.441 342.83L573.397 332.859C571.722 335.966 573.84 339.819 576.489 342.153C579.137 344.487 582.455 346.245 584.195 349.317C585.296 351.446 585.543 353.914 584.885 356.218C584.227 358.522 582.715 360.488 580.657 361.715C580.399 361.893 580.105 362.013 579.796 362.067C579.488 362.121 579.171 362.107 578.868 362.027C578.58 361.858 578.329 361.633 578.13 361.365C577.93 361.097 577.787 360.792 577.708 360.467C574.524 352.32 569.744 344.287 562.102 340.031C554.46 335.775 543.479 336.65 538.468 343.819C537.277 345.522 536.478 347.463 535.441 349.264C529.932 358.829 518.122 363.359 507.088 363.063C506.008 363.123 504.935 362.87 503.995 362.336C502.211 361.104 502.292 358.491 502.565 356.341L503.723 347.217C503.955 345.384 504.293 343.359 505.743 342.215C507.787 340.603 510.736 341.621 513.339 341.583C515.311 341.491 517.207 340.794 518.77 339.588C520.333 338.382 521.488 336.724 522.077 334.839C522.603 332.936 522.599 330.926 522.067 329.025C521.535 327.124 520.494 325.404 519.056 324.05C517.863 322.93 516.262 321.522 516.892 320.011C517.143 319.593 517.483 319.235 517.888 318.963C518.293 318.691 518.752 318.51 519.234 318.434C523.91 317.076 528.851 316.72 533.449 315.118C538.047 313.516 542.506 310.238 543.595 305.492C543.929 304.038 544.081 302.276 545.387 301.555C546.043 301.278 546.746 301.134 547.458 301.131C549.951 300.777 552.221 299.502 553.821 297.557C555.42 295.613 556.234 293.14 556.102 290.626C558.306 289.086 561.393 290.219 563.525 291.856C565.657 293.494 567.539 295.658 570.133 296.364C574.967 297.679 579.639 293.399 584.649 293.379C586.756 293.371 588.937 294.116 590.919 293.402C592.928 292.678 594.128 290.678 595.67 289.2C597.212 287.722 599.918 286.821 601.342 288.413L600.13 279.431C602.572 280.048 605.117 280.135 607.596 279.687C610.075 279.239 612.429 278.265 614.5 276.833L598.828 271.537C598.282 271.401 597.779 271.132 597.363 270.754C596.223 269.527 597.355 267.615 598.281 266.22C600.498 262.884 600.87 257.388 597.225 255.727C594.737 254.593 591.882 255.954 589.494 257.285L578.055 263.663C577.692 265.838 580.35 267.07 581.998 268.534C582.995 269.421 583.7 270.587 584.022 271.882C584.343 273.176 584.266 274.538 583.8 275.787C583.333 277.037 582.5 278.116 581.409 278.883C580.318 279.651 579.02 280.07 577.687 280.086C578.44 281.066 578.963 282.202 579.218 283.411C579.473 284.62 579.452 285.87 579.158 287.07L571.462 287.624C570.598 287.798 569.701 287.622 568.966 287.137C568.143 286.405 568.254 285.124 568.063 284.04C567.603 281.423 565.04 279.589 562.425 279.119C559.81 278.649 557.135 279.251 554.545 279.847C553.446 280.242 552.238 280.214 551.158 279.768C550.539 279.366 550.068 278.772 549.818 278.077C548.682 275.324 549.744 272.089 551.567 269.735C553.39 267.38 555.887 265.66 558.128 263.7C563.489 258.996 567.428 252.887 569.5 246.062C573.737 244.287 578.123 241.875 582.36 240.1C588.891 236.793 596.216 235.374 603.511 236.002L617.859 236.276C622.107 236.357 626.47 236.461 630.398 238.081C634.326 239.7 637.777 243.203 638.049 247.443C638.13 247.923 638.089 248.416 637.928 248.875C637.767 249.335 637.492 249.746 637.129 250.07C636.574 250.373 635.945 250.515 635.315 250.479C631.353 250.618 629.664 251.606 625.702 251.745Z" fill="#FDC100"></path> <path d="M511.339 296.712C511.899 296.182 512.303 295.507 512.505 294.762C512.707 294.017 512.699 293.231 512.484 292.49C511.119 291.963 509.636 291.828 508.199 292.099C506.762 292.371 505.43 293.038 504.352 294.025C503.502 294.885 502.769 295.853 502.173 296.905C500.288 299.981 498.62 303.655 499.713 307.094C499.802 307.469 499.965 307.822 500.192 308.133C500.42 308.444 500.707 308.707 501.037 308.906C501.527 309.102 502.055 309.185 502.581 309.147C504.658 309.145 506.733 309.017 508.795 308.765C510.061 308.61 511.532 308.253 512.021 307.075C512.664 305.526 511.107 303.774 511.561 302.16C511.86 301.438 512.312 300.79 512.887 300.261C513.172 299.995 513.391 299.666 513.527 299.3C513.663 298.934 513.711 298.542 513.669 298.154C513.486 297.397 512.326 296.967 511.909 297.625" fill="#FDC100"></path> <path d="M522.109 282.749C520.264 282.325 518.362 282.206 516.479 282.395C516.062 282.383 515.649 282.477 515.279 282.668C514.92 282.932 514.66 283.309 514.54 283.739C514.142 285.015 514.24 286.395 514.813 287.603C515.387 288.811 516.395 289.759 517.636 290.257C518.313 290.413 518.961 290.673 519.557 291.029C521.149 292.264 520.134 294.79 520.436 296.783C520.774 299.021 522.94 300.899 522.543 303.128C522.23 304.883 520.355 306.273 520.657 308.031C520.973 309.871 523.309 310.424 525.171 310.572C526.25 310.761 527.361 310.633 528.369 310.205C529.38 309.514 530.098 308.473 530.386 307.283C531.149 305.015 531.469 302.621 531.33 300.231C531.322 299.145 531.049 298.076 530.535 297.119C529.974 296.36 529.353 295.649 528.677 294.991C525.11 290.842 528.865 284.653 522.109 282.749Z" fill="#FDC100"></path> <path opacity="0.8" d="M991.171 607.784C991.171 607.784 717.97 450.962 600.353 480.675C600.353 480.675 351.088 507.5 322.199 566.515C322.199 566.515 242.963 318.901 214.074 310.647" stroke="#5C891C" stroke-width="3" stroke-miterlimit="10"></path> <path opacity="0.8" d="M322.199 566.515C368.008 444.359 780.699 308.996 780.699 308.996C722.097 323.853 600.353 480.675 600.353 480.675C600.353 480.675 342.834 293.314 214.074 310.647C214.074 310.647 781.112 329.218 991.171 607.784" stroke="#5C891C" stroke-width="3" stroke-miterlimit="10"></path> <path d="M214.074 322.615C220.683 322.615 226.042 317.257 226.042 310.647C226.042 304.037 220.683 298.679 214.074 298.679C207.464 298.679 202.105 304.037 202.105 310.647C202.105 317.257 207.464 322.615 214.074 322.615Z" fill="#5C891C"></path> <path d="M322.198 578.483C328.808 578.483 334.167 573.125 334.167 566.515C334.167 559.905 328.808 554.547 322.198 554.547C315.589 554.547 310.23 559.905 310.23 566.515C310.23 573.125 315.589 578.483 322.198 578.483Z" fill="#5C891C"></path> <path d="M780.698 320.964C787.308 320.964 792.667 315.606 792.667 308.996C792.667 302.386 787.308 297.028 780.698 297.028C774.089 297.028 768.73 302.386 768.73 308.996C768.73 315.606 774.089 320.964 780.698 320.964Z" fill="#5C891C"></path> <path d="M991.171 619.752C997.781 619.752 1003.14 614.394 1003.14 607.784C1003.14 601.174 997.781 595.816 991.171 595.816C984.561 595.816 979.203 601.174 979.203 607.784C979.203 614.394 984.561 619.752 991.171 619.752Z" fill="#5C891C"></path> <path d="M600.353 492.643C606.963 492.643 612.321 487.285 612.321 480.675C612.321 474.066 606.963 468.707 600.353 468.707C593.743 468.707 588.385 474.066 588.385 480.675C588.385 487.285 593.743 492.643 600.353 492.643Z" fill="#5C891C"></path> </g> <defs> <clipPath id="clip0_203_500"> <rect width="1176.61" height="873.979" fill="white"></rect> </clipPath> </defs> </svg> 